<svg width="8" height="8" viewBox="0 0 8 8" fill="none" xmlns="http://www.w3.org/2000/svg">
<path id="Line 3" d="M0.646447 6.40768C0.451184 6.60294 0.451184 6.91952 0.646447 7.11478C0.841709 7.31005 1.15829 7.31005 1.35355 7.11478L0.646447 6.40768ZM7.02268 1.23855C7.02268 0.962408 6.79882 0.73855 6.52268 0.73855L2.02268 0.73855C1.74654 0.73855 1.52268 0.962408 1.52268 1.23855C1.52268 1.51469 1.74654 1.73855 2.02268 1.73855H6.02268V5.73855C6.02268 6.01469 6.24654 6.23855 6.52268 6.23855C6.79882 6.23855 7.02268 6.01469 7.02268 5.73855L7.02268 1.23855ZM1 6.76123L1.35355 7.11478L6.87623 1.5921L6.52268 1.23855L6.16913 0.884997L0.646447 6.40768L1 6.76123Z" fill="black"/>
</svg>
