<svg width="25" height="26" viewBox="0 0 25 26" fill="none" xmlns="http://www.w3.org/2000/svg">
<path d="M3.68521 1.35688C2.90416 0.575833 1.63783 0.575833 0.856783 1.35688C0.0757339 2.13793 0.0757339 3.40426 0.856783 4.18531L3.68521 1.35688ZM22.7288 25.2289C23.8334 25.2289 24.7288 24.3335 24.7288 23.2289L24.7288 5.22891C24.7288 4.12434 23.8334 3.22891 22.7288 3.22891C21.6242 3.22891 20.7288 4.12434 20.7288 5.22891L20.7288 21.2289L4.72881 21.2289C3.62424 21.2289 2.72881 22.1243 2.72881 23.2289C2.72881 24.3335 3.62424 25.2289 4.72881 25.2289L22.7288 25.2289ZM2.271 2.7711L0.856783 4.18531L21.3146 24.6431L22.7288 23.2289L24.143 21.8147L3.68521 1.35688L2.271 2.7711Z" fill="black"/>
</svg>
